:SAMPLES-PER-SECOND 30
:FULLY-SPECIFIED
:DEGREES
584
root  4.69996 34.1265 -11.8973 -168.828 53.4995 -178.643
LeftUpLeg  -20.9104 7.80142 5.47929
LeftLeg  8.54497 -2.55675 -0.218448
LeftFoot  13.3801 0.0548357 -0.467502
LeftToes  -23.3851 7.65994e-007 1.12379e-007
Spine  5.79929 4.95115 -0.242149
Spine1  11.431 10.4425 -0.690751
RightShoulder  0.0612735 2.63 -12.3927
RightArm  15.2214 31.6616 97.2852
RightForeArm  127.43 59.7378 162.073
RightHand  1.11656 -14.5644 -8.34734
LeftShoulder1  -0.0186083 0.213059 -3.26203
LeftArm  -11.7829 23.2529 -73.068
LeftForeArm  28.7306 -50.1821 -12.234
LeftHand  0.161143 2.34519 7.36942
HEad  8.37988 27.5185 -6.86269
RightUpLeg  -15.1208 -14.1756 7.44723
RightLeg  9.89393 -0.0970249 -0.00917471
RightFoot  -0.294483 -0.00899526 0.0874922
RightToes  -16.4358 -0.0566933 -0.147565
585
root  4.73419 34.1259 -11.8996 -169.086 53.4897 -178.65
LeftUpLeg  -20.647 7.71288 5.5604
LeftLeg  8.63783 -2.49776 -0.217521
LeftFoot  13.2895 0.0530412 -0.455317
LeftToes  -23.3711 7.65994e-007 1.12379e-007
Spine  5.64759 4.87532 -0.257764
Spine1  11.13 10.2719 -0.704471
RightShoulder  0.0590551 2.52826 -12.3633
RightArm  15.2501 31.631 97.4658
RightForeArm  127.591 59.5358 162.22
RightHand  1.11688 -14.5714 -8.39465
LeftShoulder1  -0.0191324 0.225386 -3.23179
LeftArm  -11.8793 23.2902 -73.0631
LeftForeArm  28.6651 -49.8442 -12.0854
LeftHand  0.162323 2.34684 7.35743
HEad  8.26641 27.0848 -6.6859
RightUpLeg  -14.8069 -14.3783 7.41926
RightLeg  9.87578 0.0555289 0.00740465
RightFoot  -0.343652 -0.00863612 0.0831925
RightToes  -16.3741 -0.0566398 -0.147048
586
root  4.75965 34.124 -11.8998 -169.336 53.5629 -178.647
LeftUpLeg  -20.3491 7.65668 5.63732
LeftLeg  8.6583 -2.38224 -0.208372
LeftFoot  13.2304 0.0508091 -0.431071
LeftToes  -23.4108 7.65994e-007 1.12379e-007
Spine  5.51761 4.83568 -0.272871
Spine1  10.8737 10.1747 -0.715407
RightShoulder  0.0570575 2.4694 -12.3776
RightArm  15.1918 31.6405 97.6492
RightForeArm  127.754 59.3637 162.343
RightHand  1.1141 -14.5555 -8.36205
LeftShoulder1  -0.0196622 0.262608 -3.24328
LeftArm  -12.058 23.2573 -73.0993
LeftForeArm  28.5845 -49.2793 -11.8417
LeftHand  0.162569 2.36391 7.29738
HEad  7.92152 26.6236 -6.65003
RightUpLeg  -14.5641 -14.2597 7.35218
RightLeg  10.0076 -0.00664822 0.000636869
RightFoot  -0.445356 -0.00840548 0.0813882
RightToes  -16.3673 -0.0566287 -0.147064
587
root  4.77978 34.1214 -11.9035 -169.683 53.5816 -178.685
LeftUpLeg  -20.0199 7.53414 5.69669
LeftLeg  8.71768 -2.27264 -0.201217
LeftFoot  13.1705 0.0488757 -0.407436
LeftToes  -23.4203 7.65994e-007 1.12379e-007
Spine  5.40838 4.78612 -0.284733
Spine1  10.6571 10.0612 -0.725847
RightShoulder  0.0553731 2.39154 -12.369
RightArm  15.1249 31.702 97.8504
RightForeArm  127.842 59.3045 162.385
RightHand  1.10877 -14.5726 -8.28192
LeftShoulder1  -0.0201962 0.269835 -3.21884
LeftArm  -12.303 23.2529 -73.2064
LeftForeArm  28.3465 -48.5352 -11.5294
LeftHand  0.16489 2.40923 7.32979
HEad  7.68959 26.278 -6.58753
RightUpLeg  -14.286 -14.1463 7.23671
RightLeg  10.1941 -0.134298 -0.013961
RightFoot  -0.567841 -0.00822018 0.0807529
RightToes  -16.4284 -0.0566654 -0.147001
588
root  4.79776 34.1198 -11.9064 -170.142 53.499 -178.702
LeftUpLeg  -19.5899 7.30176 5.79318
LeftLeg  8.78775 -2.16183 -0.194132
LeftFoot  13.1504 0.0470179 -0.382174
LeftToes  -23.5763 7.65994e-007 1.12379e-007
Spine  5.34573 4.71073 -0.273873
Spine1  10.5308 9.90635 -0.708159
RightShoulder  0.0530052 2.41712 -12.3837
RightArm  14.9442 31.7998 97.9087
RightForeArm  127.898 59.2687 162.411
RightHand  1.11007 -14.5433 -8.30954
LeftShoulder1  -0.0207331 0.294773 -3.19431
LeftArm  -12.6692 23.247 -73.3872
LeftForeArm  28.2376 -47.6416 -11.1668
LeftHand  0.165994 2.46452 7.3148
HEad  7.51865 26.1102 -6.51381
RightUpLeg  -13.772 -13.9837 7.09989
RightLeg  10.1495 -0.430679 -0.0474299
RightFoot  -0.60163 -0.00800053 0.0800143
RightToes  -16.5355 -0.0567551 -0.146887
589
root  4.81 34.1156 -11.9048 -170.288 53.4677 -178.729
LeftUpLeg  -19.4842 7.27354 5.81133
LeftLeg  8.85438 -2.18866 -0.1991
LeftFoot  13.0683 0.047557 -0.39259
LeftToes  -23.4646 7.65994e-007 1.12379e-007
Spine  5.18642 4.66423 -0.258389
Spine1  10.2249 9.78108 -0.644881
RightShoulder  0.0502288 2.24133 -12.2825
RightArm  15.1284 31.7821 98.1565
RightForeArm  128.016 59.1497 162.495
RightHand  1.10286 -14.576 -8.2123
LeftShoulder1  -0.0212715 0.266741 -3.30441
LeftArm  -12.8158 23.2564 -73.4237
LeftForeArm  28.0561 -46.4934 -10.7195
LeftHand  0.169754 2.50051 7.3758
HEad  7.2981 25.7996 -6.54528
RightUpLeg  -13.567 -13.8988 7.05768
RightLeg  10.0298 -0.550217 -0.0597996
RightFoot  -0.638381 -0.00766688 0.0779005
RightToes  -16.582 -0.0569033 -0.146747
590
root  4.81555 34.1125 -11.9009 -170.441 53.4007 -178.712
LeftUpLeg  -19.345 7.23917 5.85035
LeftLeg  8.88578 -2.22988 -0.204064
LeftFoot  13.0566 0.0484509 -0.408175
LeftToes  -23.5009 7.65994e-007 1.12379e-007
Spine  5.05448 4.60863 -0.236984
Spine1  9.9732 9.63965 -0.574478
RightShoulder  0.0476628 2.19321 -12.2334
RightArm  15.1906 31.7421 98.3806
RightForeArm  128.173 59.0365 162.574
RightHand  1.09737 -14.5824 -8.16412
LeftShoulder1  -0.0218102 0.282908 -3.362
LeftArm  -13.0096 23.2365 -73.5282
LeftForeArm  27.8234 -45.2963 -10.2736
LeftHand  0.175981 2.60414 7.34124
HEad  7.13498 25.4961 -6.52874
RightUpLeg  -13.2678 -13.9285 7.03503
RightLeg  9.7683 -0.580663 -0.0604867
RightFoot  -0.573888 -0.00711573 0.0727698
RightToes  -16.784 -0.0571152 -0.146608
591
root  4.81587 34.1115 -11.8939 -170.584 53.3638 -178.682
LeftUpLeg  -19.2354 7.28439 5.88163
LeftLeg  8.97002 -2.32233 -0.21593
LeftFoot  13.0222 0.0499963 -0.434771
LeftToes  -23.458 7.65994e-007 1.12379e-007
Spine  4.92983 4.57802 -0.21214
Spine1  9.73783 9.54694 -0.49299
RightShoulder  0.0458152 2.12087 -12.1764
RightArm  15.2866 31.6273 98.6254
RightForeArm  128.265 58.8967 162.671
RightHand  1.0931 -14.6155 -8.17477
LeftShoulder1  -0.0223476 0.312196 -3.42488
LeftArm  -13.2218 23.2206 -73.651
LeftForeArm  27.6531 -44.0832 -9.84124
LeftHand  0.179819 2.68424 7.27499
HEad  7.08938 25.2638 -6.5465
RightUpLeg  -12.9839 -14.0737 7.02998
RightLeg  9.51496 -0.470443 -0.0466284
RightFoot  -0.483807 -0.00644707 0.0661387
RightToes  -16.9347 -0.0573962 -0.146495
592
root  4.80461 34.1113 -11.8792 -170.779 53.3487 -178.633
LeftUpLeg  -19.0693 7.20924 5.95417
LeftLeg  9.04619 -2.27571 -0.214678
LeftFoot  13.0205 0.0493341 -0.429173
LeftToes  -23.4313 7.65994e-007 1.12379e-007
Spine  4.85177 4.55589 -0.183873
Spine1  9.59302 9.47857 -0.412515
RightShoulder  0.04454 2.02951 -12.1109
RightArm  15.3823 31.5457 98.795
RightForeArm  128.331 58.824 162.722
RightHand  1.09245 -14.5756 -8.15322
LeftShoulder1  -0.0228826 0.33031 -3.47969
LeftArm  -13.4949 23.2469 -73.7752
LeftForeArm  27.4853 -43.0523 -9.48807
LeftHand  0.182927 2.74806 7.22702
HEad  6.99022 25.1663 -6.59276
RightUpLeg  -12.7169 -14.0586 7.00857
RightLeg  9.39794 -0.503911 -0.0490002
RightFoot  -0.427683 -0.0059463 0.0624038
RightToes  -17.0285 -0.0577515 -0.146434
593
root  4.78916 34.1065 -11.8633 -171.058 53.3492 -178.638
LeftUpLeg  -18.856 7.14344 5.99448
LeftLeg  9.09771 -2.23556 -0.212944
LeftFoot  13.0311 0.0484671 -0.423737
LeftToes  -23.4359 7.65994e-007 1.12379e-007
Spine  4.79953 4.53896 -0.153401
Spine1  9.49698 9.42798 -0.336437
RightShoulder  0.0433608 1.97827 -12.0752
RightArm  15.3964 31.4956 98.8812
RightForeArm  128.388 58.7846 162.749
RightHand  1.09058 -14.6378 -8.1023
LeftShoulder1  -0.0234136 0.338675 -3.53553
LeftArm  -13.7708 23.3456 -73.8993
LeftForeArm  27.3947 -42.1963 -9.20406
LeftHand  0.190697 2.87501 7.20073
HEad  6.97539 25.1015 -6.66657
RightUpLeg  -12.4536 -13.9699 6.93956
RightLeg  9.36504 -0.606706 -0.0589278
RightFoot  -0.422049 -0.00557548 0.0609409
RightToes  -17.0659 -0.0581866 -0.146452
